<?xml version="1.0" encoding="iso-8859-1"?>
<!-- Generator: Adobe Illustrator 19.0.0, SVG Export Plug-In . SVG Version: 6.00 Build 0)  -->
<svg version="1.1" id="Capa_1" xmlns="http://www.w3.org/2000/svg" xmlns:xlink="http://www.w3.org/1999/xlink" x="0px" y="0px"
	 viewBox="0 0 188.135 188.135" style="enable-background:new 0 0 188.135 188.135;" xml:space="preserve">
<g>
	<g id="headphones_1_">
		<path d="M94.067,188.135C42.198,188.135,0,145.937,0,94.067S42.198,0,94.067,0s94.067,42.198,94.067,94.067
			S145.938,188.135,94.067,188.135z M94.067,3C43.853,3,3,43.853,3,94.067s40.853,91.067,91.067,91.067s91.067-40.853,91.067-91.067
			S144.283,3,94.067,3z"/>
		<g>
			<path d="M53.775,133.036c-7.486-10.284-11.125-20.788-11.125-32.112c0-28.459,23.066-51.611,51.418-51.611
				c28.351,0,51.416,23.123,51.416,51.546c0,11.367-3.639,21.893-11.123,32.178l-2.426-1.766
				c7.099-9.754,10.549-19.702,10.549-30.412c0-26.769-21.72-48.546-48.416-48.546c-26.698,0-48.418,21.807-48.418,48.611
				c0,10.667,3.451,20.594,10.551,30.347L53.775,133.036z"/>
			<path d="M57.064,106.563l1.412-0.828c5.066-2.974,11.586-1.274,14.56,3.795l6.418,10.94c2.973,5.067,1.273,11.586-3.795,14.56
				l-1.41,0.828c-5.066,2.973-11.588,1.275-14.56-3.794l-6.418-10.94C50.299,116.056,51.996,109.537,57.064,106.563"/>
			<path d="M130.491,106.563l-1.41-0.828c-5.068-2.974-11.588-1.274-14.563,3.795l-6.418,10.94
				c-2.973,5.067-1.273,11.586,3.795,14.56l1.41,0.828c5.066,2.973,11.588,1.275,14.561-3.794l6.418-10.94
				C137.257,116.056,135.56,109.537,130.491,106.563"/>
		</g>
	</g>
</g>
<g>
</g>
<g>
</g>
<g>
</g>
<g>
</g>
<g>
</g>
<g>
</g>
<g>
</g>
<g>
</g>
<g>
</g>
<g>
</g>
<g>
</g>
<g>
</g>
<g>
</g>
<g>
</g>
<g>
</g>
</svg>
