<svg xmlns="http://www.w3.org/2000/svg" width="188.135" height="188.135">
  <rect width="100%" height="100%" fill="none"/>
  <g class="currentLayer">
    <g class="selected" fill="#fff">
      <path d="M94.067 188.135C42.198 188.135 0 145.937 0 94.067S42.198 0 94.067 0s94.067 42.198 94.067 94.067-42.196 94.068-94.067 94.068zM94.067 3C43.853 3 3 43.853 3 94.067s40.853 91.067 91.067 91.067 91.067-40.853 91.067-91.067S144.283 3 94.067 3z"/>
      <path d="M92.635 122.067h3v33h-3z"/>
      <path d="M94.067 123.203c-20.476 0-37.135-17.136-37.135-37.136h3c0 19 15.313 34.136 34.135 34.136s34.135-15.136 34.135-34.136h3c0 20-16.658 37.136-37.135 37.136z"/>
      <path d="M94.135 107.856c-11.304 0-20.5-9.574-20.5-21.343V52.535c0-11.769 9.196-21.343 20.5-21.343s20.5 9.574 20.5 21.343v33.979c0 11.768-9.197 21.342-20.5 21.342zm0-73.664c-9.649 0-17.5 8.229-17.5 18.343v33.979c0 10.114 7.851 18.343 17.5 18.343s17.5-8.229 17.5-18.343V52.535c0-10.114-7.851-18.343-17.5-18.343z"/>
    </g>
  </g>
</svg>
