<svg xmlns="http://www.w3.org/2000/svg" width="188.135" height="188.135">
  <rect width="100%" height="100%" fill="none"/>
  <g class="currentLayer">
    <g class="selected" fill="#fff">
 <path d="M94.068,188.135c-51.869,0-94.067-42.197-94.067-94.066
	c0-51.87,42.198-94.066,94.067-94.066c51.868,0,94.065,42.197,94.065,94.066C188.134,145.936,145.938,188.135,94.068,188.135z
	 M94.068,3.002c-50.215,0-91.067,40.853-91.067,91.066c0,50.213,40.853,91.066,91.067,91.066c50.212,0,91.065-40.854,91.065-91.066
	C185.134,43.855,144.284,3.002,94.068,3.002z"/>
	<path d="M68.727,141.341c9.925,0,17.999-8.074,17.999-18V65.383l49.196-16.301
			c-0.349,0.169-0.593,0.518-0.593,0.932v50.325c-3.017-5.707-9.013-9.612-15.916-9.612c-9.929,0-18.005,8.073-18.005,17.999
			s8.076,17.998,18.005,17.998c9.924,0,17.999-8.072,17.999-17.998v-58.71c0-0.575-0.472-1.041-1.042-1.041
			c-0.107,0-0.198,0.029-0.297,0.058l0.628-0.207c0.544-0.181,0.835-0.772,0.657-1.317c-0.184-0.545-0.775-0.843-1.322-0.661
			L85.35,63.643c-0.012,0.004-0.022,0.014-0.035,0.021c-0.072,0.026-0.134,0.071-0.196,0.112c-0.05,0.035-0.106,0.061-0.148,0.102
			c-0.051,0.045-0.084,0.104-0.123,0.159c-0.037,0.055-0.082,0.103-0.108,0.162c-0.025,0.058-0.034,0.118-0.05,0.178
			c-0.018,0.073-0.042,0.143-0.043,0.217c0,0.015-0.009,0.027-0.009,0.041v50.327c-3.02-5.711-9.017-9.615-15.915-9.615
			c-9.923,0-17.999,8.076-17.999,18C50.733,133.277,58.805,141.341,68.727,141.341z M119.416,124.64
			c-8.773,0-15.922-7.141-15.922-15.914c0-8.777,7.148-15.914,15.922-15.914c8.774,0,15.915,7.137,15.915,15.914
			C135.331,117.499,128.19,124.64,119.416,124.64z M68.727,107.423c8.775,0,15.915,7.143,15.915,15.918
			c0,8.773-7.14,15.914-15.915,15.914s-15.914-7.141-15.914-15.914C52.815,114.566,59.951,107.423,68.727,107.423z"/>
    </g>
  </g>
</svg>
