<?xml version="1.0" encoding="utf-8"?>
<!-- Generator: Adobe Illustrator 16.0.0, SVG Export Plug-In . SVG Version: 6.00 Build 0)  -->
<!DOCTYPE svg PUBLIC "-//W3C//DTD SVG 1.1//EN" "http://www.w3.org/Graphics/SVG/1.1/DTD/svg11.dtd">
<svg version="1.1" id="Ebene_1" xmlns="http://www.w3.org/2000/svg" xmlns:xlink="http://www.w3.org/1999/xlink" x="0px" y="0px"
	 width="188.135px" height="188.135px" viewBox="0 0 188.135 188.135" enable-background="new 0 0 188.135 188.135"
	 xml:space="preserve">
<path fill="#FFFFFF" stroke="#0A0A0A" stroke-miterlimit="10" d="M94.068,188.135c-51.869,0-94.067-42.197-94.067-94.066
	c0-51.87,42.198-94.066,94.067-94.066c51.868,0,94.065,42.197,94.065,94.066C188.134,145.936,145.938,188.135,94.068,188.135z
	 M94.068,3.002c-50.215,0-91.067,40.853-91.067,91.066c0,50.213,40.853,91.066,91.067,91.066c50.212,0,91.065-40.854,91.065-91.066
	C185.134,43.855,144.284,3.002,94.068,3.002z"/>
<g>
	<g>
		<path fill="#FFFFFF" stroke="#000000" d="M51.423,155.791c12.959,0,23.5-10.539,23.5-23.5V56.617l64.234-21.283
			c-0.457,0.221-0.775,0.677-0.775,1.217v65.709c-3.939-7.455-11.768-12.552-20.781-12.552c-12.963,0-23.508,10.542-23.508,23.501
			c0,12.957,10.545,23.498,23.508,23.498c12.957,0,23.502-10.539,23.502-23.498V36.554c0-0.752-0.617-1.36-1.361-1.36
			c-0.139,0-0.26,0.039-0.387,0.076l0.818-0.271c0.711-0.236,1.09-1.008,0.857-1.72c-0.24-0.712-1.012-1.101-1.727-0.863
			L73.127,54.345c-0.017,0.006-0.029,0.019-0.046,0.027c-0.095,0.034-0.175,0.093-0.256,0.146c-0.065,0.045-0.139,0.079-0.193,0.132
			c-0.066,0.059-0.109,0.136-0.16,0.208c-0.049,0.071-0.106,0.135-0.142,0.212c-0.032,0.075-0.044,0.154-0.065,0.231
			c-0.023,0.096-0.055,0.187-0.057,0.284c0,0.02-0.012,0.035-0.012,0.053v65.709c-3.943-7.455-11.772-12.555-20.779-12.555
			c-12.957,0-23.5,10.547-23.5,23.504C27.929,145.262,38.468,155.791,51.423,155.791z M117.604,133.987
			c-11.455,0-20.789-9.322-20.789-20.777c0-11.461,9.334-20.779,20.789-20.779c11.457,0,20.779,9.318,20.779,20.779
			C138.384,124.664,129.062,133.987,117.604,133.987z M51.423,111.508c11.457,0,20.779,9.324,20.779,20.783
			c0,11.455-9.322,20.777-20.779,20.777s-20.778-9.322-20.778-20.777C30.647,120.832,39.964,111.508,51.423,111.508z"/>
	</g>
</g>
</svg>
